{
	"asset":{
		"generator":"Khronos glTF Blender I/O v4.3.47",
		"version":"2.0"
	},
	"scene":0,
	"scenes":[
		{
			"name":"Scene",
			"nodes":[
				0
			]
		}
	],
	"nodes":[
		{
			"mesh":0,
			"name":"Foot - Left",
			"translation":[
				-0.008022960275411606,
				0.10583789646625519,
				-0.09493552148342133
			]
		}
	],
	"materials":[
		{
			"doubleSided":true,
			"name":"Material.001",
			"pbrMetallicRoughness":{
				"baseColorFactor":[
					0.8003470301628113,
					0.6391165852546692,
					0.29332777857780457,
					1
				],
				"metallicFactor":0,
				"roughnessFactor":0.5
			}
		}
	],
	"meshes":[
		{
			"name":"Foot - Realistic",
			"primitives":[
				{
					"attributes":{
						"POSITION":0,
						"NORMAL":1,
						"TEXCOORD_0":2,
						"COLOR_0":3,
						"COLOR_1":4,
						"COLOR_2":5,
						"COLOR_3":6,
						"COLOR_4":7,
						"COLOR_5":8,
						"COLOR_6":9,
						"COLOR_7":10,
						"COLOR_8":11,
						"COLOR_9":12,
						"COLOR_10":13,
						"COLOR_11":14,
						"COLOR_12":15,
						"COLOR_13":16,
						"COLOR_14":17,
						"COLOR_15":18,
						"COLOR_16":19,
						"COLOR_17":20,
						"COLOR_18":21,
						"COLOR_19":22,
						"COLOR_20":23,
						"COLOR_21":24,
						"COLOR_22":25,
						"COLOR_23":26,
						"COLOR_24":27,
						"COLOR_25":28,
						"COLOR_26":29,
						"COLOR_27":30,
						"COLOR_28":31,
						"COLOR_29":32,
						"COLOR_30":33,
						"COLOR_31":34,
						"COLOR_32":35,
						"COLOR_33":36,
						"COLOR_34":37,
						"COLOR_35":38
					},
					"indices":39,
					"material":0
				}
			]
		}
	],
	"accessors":[
		{
			"bufferView":0,
			"componentType":5126,
			"count":7279,
			"max":[
				0.057205796241760254,
				0.07230360060930252,
				0.1934535652399063
			],
			"min":[
				-0.03397488594055176,
				-0.10583789646625519,
				-0.042496249079704285
			],
			"type":"VEC3"
		},
		{
			"bufferView":1,
			"componentType":5126,
			"count":7279,
			"type":"VEC3"
		},
		{
			"bufferView":2,
			"componentType":5126,
			"count":7279,
			"type":"VEC2"
		},
		{
			"bufferView":3,
			"componentType":5123,
			"count":7279,
			"normalized":true,
			"type":"VEC4"
		},
		{
			"bufferView":4,
			"componentType":5123,
			"count":7279,
			"normalized":true,
			"type":"VEC4"
		},
		{
			"bufferView":5,
			"componentType":5123,
			"count":7279,
			"normalized":true,
			"type":"VEC4"
		},
		{
			"bufferView":6,
			"componentType":5123,
			"count":7279,
			"normalized":true,
			"type":"VEC4"
		},
		{
			"bufferView":7,
			"componentType":5123,
			"count":7279,
			"normalized":true,
			"type":"VEC4"
		},
		{
			"bufferView":8,
			"componentType":5123,
			"count":7279,
			"normalized":true,
			"type":"VEC4"
		},
		{
			"bufferView":9,
			"componentType":5123,
			"count":7279,
			"normalized":true,
			"type":"VEC4"
		},
		{
			"bufferView":10,
			"componentType":5123,
			"count":7279,
			"normalized":true,
			"type":"VEC4"
		},
		{
			"bufferView":11,
			"componentType":5123,
			"count":7279,
			"normalized":true,
			"type":"VEC4"
		},
		{
			"bufferView":12,
			"componentType":5123,
			"count":7279,
			"normalized":true,
			"type":"VEC4"
		},
		{
			"bufferView":13,
			"componentType":5123,
			"count":7279,
			"normalized":true,
			"type":"VEC4"
		},
		{
			"bufferView":14,
			"componentType":5123,
			"count":7279,
			"normalized":true,
			"type":"VEC4"
		},
		{
			"bufferView":15,
			"componentType":5123,
			"count":7279,
			"normalized":true,
			"type":"VEC4"
		},
		{
			"bufferView":16,
			"componentType":5123,
			"count":7279,
			"normalized":true,
			"type":"VEC4"
		},
		{
			"bufferView":17,
			"componentType":5123,
			"count":7279,
			"normalized":true,
			"type":"VEC4"
		},
		{
			"bufferView":18,
			"componentType":5123,
			"count":7279,
			"normalized":true,
			"type":"VEC4"
		},
		{
			"bufferView":19,
			"componentType":5123,
			"count":7279,
			"normalized":true,
			"type":"VEC4"
		},
		{
			"bufferView":20,
			"componentType":5123,
			"count":7279,
			"normalized":true,
			"type":"VEC4"
		},
		{
			"bufferView":21,
			"componentType":5123,
			"count":7279,
			"normalized":true,
			"type":"VEC4"
		},
		{
			"bufferView":22,
			"componentType":5123,
			"count":7279,
			"normalized":true,
			"type":"VEC4"
		},
		{
			"bufferView":23,
			"componentType":5123,
			"count":7279,
			"normalized":true,
			"type":"VEC4"
		},
		{
			"bufferView":24,
			"componentType":5123,
			"count":7279,
			"normalized":true,
			"type":"VEC4"
		},
		{
			"bufferView":25,
			"componentType":5123,
			"count":7279,
			"normalized":true,
			"type":"VEC4"
		},
		{
			"bufferView":26,
			"componentType":5123,
			"count":7279,
			"normalized":true,
			"type":"VEC4"
		},
		{
			"bufferView":27,
			"componentType":5123,
			"count":7279,
			"normalized":true,
			"type":"VEC4"
		},
		{
			"bufferView":28,
			"componentType":5123,
			"count":7279,
			"normalized":true,
			"type":"VEC4"
		},
		{
			"bufferView":29,
			"componentType":5123,
			"count":7279,
			"normalized":true,
			"type":"VEC4"
		},
		{
			"bufferView":30,
			"componentType":5123,
			"count":7279,
			"normalized":true,
			"type":"VEC4"
		},
		{
			"bufferView":31,
			"componentType":5123,
			"count":7279,
			"normalized":true,
			"type":"VEC4"
		},
		{
			"bufferView":32,
			"componentType":5123,
			"count":7279,
			"normalized":true,
			"type":"VEC4"
		},
		{
			"bufferView":33,
			"componentType":5123,
			"count":7279,
			"normalized":true,
			"type":"VEC4"
		},
		{
			"bufferView":34,
			"componentType":5123,
			"count":7279,
			"normalized":true,
			"type":"VEC4"
		},
		{
			"bufferView":35,
			"componentType":5123,
			"count":7279,
			"normalized":true,
			"type":"VEC4"
		},
		{
			"bufferView":36,
			"componentType":5123,
			"count":7279,
			"normalized":true,
			"type":"VEC4"
		},
		{
			"bufferView":37,
			"componentType":5123,
			"count":7279,
			"normalized":true,
			"type":"VEC4"
		},
		{
			"bufferView":38,
			"componentType":5123,
			"count":7279,
			"normalized":true,
			"type":"VEC4"
		},
		{
			"bufferView":39,
			"componentType":5123,
			"count":35706,
			"type":"SCALAR"
		}
	],
	"bufferViews":[
		{
			"buffer":0,
			"byteLength":87348,
			"byteOffset":0,
			"target":34962
		},
		{
			"buffer":0,
			"byteLength":87348,
			"byteOffset":87348,
			"target":34962
		},
		{
			"buffer":0,
			"byteLength":58232,
			"byteOffset":174696,
			"target":34962
		},
		{
			"buffer":0,
			"byteLength":58232,
			"byteOffset":232928,
			"target":34962
		},
		{
			"buffer":0,
			"byteLength":58232,
			"byteOffset":291160,
			"target":34962
		},
		{
			"buffer":0,
			"byteLength":58232,
			"byteOffset":349392,
			"target":34962
		},
		{
			"buffer":0,
			"byteLength":58232,
			"byteOffset":407624,
			"target":34962
		},
		{
			"buffer":0,
			"byteLength":58232,
			"byteOffset":465856,
			"target":34962
		},
		{
			"buffer":0,
			"byteLength":58232,
			"byteOffset":524088,
			"target":34962
		},
		{
			"buffer":0,
			"byteLength":58232,
			"byteOffset":582320,
			"target":34962
		},
		{
			"buffer":0,
			"byteLength":58232,
			"byteOffset":640552,
			"target":34962
		},
		{
			"buffer":0,
			"byteLength":58232,
			"byteOffset":698784,
			"target":34962
		},
		{
			"buffer":0,
			"byteLength":58232,
			"byteOffset":757016,
			"target":34962
		},
		{
			"buffer":0,
			"byteLength":58232,
			"byteOffset":815248,
			"target":34962
		},
		{
			"buffer":0,
			"byteLength":58232,
			"byteOffset":873480,
			"target":34962
		},
		{
			"buffer":0,
			"byteLength":58232,
			"byteOffset":931712,
			"target":34962
		},
		{
			"buffer":0,
			"byteLength":58232,
			"byteOffset":989944,
			"target":34962
		},
		{
			"buffer":0,
			"byteLength":58232,
			"byteOffset":1048176,
			"target":34962
		},
		{
			"buffer":0,
			"byteLength":58232,
			"byteOffset":1106408,
			"target":34962
		},
		{
			"buffer":0,
			"byteLength":58232,
			"byteOffset":1164640,
			"target":34962
		},
		{
			"buffer":0,
			"byteLength":58232,
			"byteOffset":1222872,
			"target":34962
		},
		{
			"buffer":0,
			"byteLength":58232,
			"byteOffset":1281104,
			"target":34962
		},
		{
			"buffer":0,
			"byteLength":58232,
			"byteOffset":1339336,
			"target":34962
		},
		{
			"buffer":0,
			"byteLength":58232,
			"byteOffset":1397568,
			"target":34962
		},
		{
			"buffer":0,
			"byteLength":58232,
			"byteOffset":1455800,
			"target":34962
		},
		{
			"buffer":0,
			"byteLength":58232,
			"byteOffset":1514032,
			"target":34962
		},
		{
			"buffer":0,
			"byteLength":58232,
			"byteOffset":1572264,
			"target":34962
		},
		{
			"buffer":0,
			"byteLength":58232,
			"byteOffset":1630496,
			"target":34962
		},
		{
			"buffer":0,
			"byteLength":58232,
			"byteOffset":1688728,
			"target":34962
		},
		{
			"buffer":0,
			"byteLength":58232,
			"byteOffset":1746960,
			"target":34962
		},
		{
			"buffer":0,
			"byteLength":58232,
			"byteOffset":1805192,
			"target":34962
		},
		{
			"buffer":0,
			"byteLength":58232,
			"byteOffset":1863424,
			"target":34962
		},
		{
			"buffer":0,
			"byteLength":58232,
			"byteOffset":1921656,
			"target":34962
		},
		{
			"buffer":0,
			"byteLength":58232,
			"byteOffset":1979888,
			"target":34962
		},
		{
			"buffer":0,
			"byteLength":58232,
			"byteOffset":2038120,
			"target":34962
		},
		{
			"buffer":0,
			"byteLength":58232,
			"byteOffset":2096352,
			"target":34962
		},
		{
			"buffer":0,
			"byteLength":58232,
			"byteOffset":2154584,
			"target":34962
		},
		{
			"buffer":0,
			"byteLength":58232,
			"byteOffset":2212816,
			"target":34962
		},
		{
			"buffer":0,
			"byteLength":58232,
			"byteOffset":2271048,
			"target":34962
		},
		{
			"buffer":0,
			"byteLength":71412,
			"byteOffset":2329280,
			"target":34963
		}
	],
	"buffers":[
		{
			"byteLength":2400692,
			"uri":"Leftfoot.bin"
		}
	]
}
